<svg xmlns="http://www.w3.org/2000/svg" version="1.1" viewBox="-5.0 -10.0 110.0 135.0">
 <path fill="#8B5CF6" d="m89.809 42.785c-4.7109 0.82812-10.992 1.2812-18.164 0.015625-5.2344-0.92188-9.6992-2.543-13.348-4.2773-0.61328 4.4883-1.9062 9.0234-4.1133 13.371 1.418 0.82812 3 1.4375 4.7227 1.7422 2.0586 0.36328 4.082 0.26953 5.9688-0.20703 0.85156-0.21484 1.5078 0.82812 0.9375 1.4922-1.8164 2.1211-4.6797 3.25-7.6172 2.7305-2.2305-0.39453-4.0938-1.6641-5.2891-3.3984-0.61719 1.0273-1.2891 2.0391-2.0234 3.0352-1.6367 2.2148-3.5273 4.2539-5.6406 6.0938 0.60937 6.4219 2.5508 13.035 6.8867 18.902 1.5977 2.1602 3.8867 4.7227 7.1523 7.168 2.2969 1.7188 5.2695 2.2422 8.0156 1.4141 3.9062-1.1797 6.9336-2.8047 9.1719-4.2891 15.133-10.031 18.051-29.434 18.523-39.215 0.13672-2.8594-2.3867-5.0703-5.1875-4.5742zm-14.18 36.324c-2.6289-2.0352-5.7891-3.4727-9.3125-4.0938-3.5273-0.62109-6.9883-0.35156-10.152 0.66016-0.85937 0.27344-1.5508-0.67578-1.0469-1.4258 2.6055-3.9062 7.3594-6.1016 12.258-5.2383 4.9023 0.86328 8.6172 4.5547 9.7266 9.1133 0.21484 0.87891-0.75781 1.5312-1.4727 0.98047zm11.184-20.488c-1.8164 2.1211-4.6797 3.25-7.6172 2.7305-2.9414-0.51953-5.2422-2.5547-6.2227-5.1719-0.30859-0.82031 0.66797-1.5742 1.3945-1.082 1.6094 1.0938 3.4805 1.875 5.5391 2.2344 2.0586 0.36328 4.082 0.26953 5.9688-0.20703 0.85156-0.21484 1.5078 0.82812 0.9375 1.4922z"/>
 <path fill="#8B5CF6" d="m51.859 11.875c-0.84766-2.7344-3.9766-3.9492-6.4414-2.5273-4.1445 2.3906-9.8906 4.9609-17.062 6.2266s-13.453 0.81641-18.164-0.015625c-2.8008-0.49219-5.3242 1.7188-5.1875 4.5742 0.47266 9.7812 3.3906 29.184 18.523 39.215 2.2383 1.4844 5.2656 3.1094 9.1758 4.2891 2.7422 0.82812 5.7188 0.30469 8.0156-1.4141 3.2695-2.4453 5.5586-5.0078 7.1523-7.168 10.789-14.602 6.8945-33.828 3.9922-43.184zm-36.824 23.188c-0.72656 0.49219-1.6992-0.26172-1.3945-1.082 0.98047-2.6133 3.2852-4.6523 6.2227-5.1719 2.9414-0.51953 5.8008 0.60938 7.6172 2.7305 0.57031 0.66406-0.089844 1.707-0.9375 1.4922-1.8867-0.47656-3.9141-0.57031-5.9688-0.20703-2.0586 0.36328-3.9297 1.1406-5.5391 2.2344zm29.797 7.6484c-1.1133 4.5625-4.8281 8.25-9.7266 9.1133-4.9023 0.86328-9.6523-1.332-12.258-5.2383-0.5-0.75 0.1875-1.6992 1.0469-1.4258 3.1641 1.0117 6.6289 1.2852 10.152 0.66016 3.5273-0.62109 6.6875-2.0625 9.3125-4.0938 0.71484-0.55078 1.6875 0.10547 1.4727 0.98047zm2.707-13.379c-1.8867-0.47656-3.9141-0.57031-5.9688-0.20703-2.0586 0.36328-3.9297 1.1406-5.5391 2.2344-0.72656 0.49219-1.6992-0.26172-1.3945-1.082 0.98047-2.6133 3.2852-4.6523 6.2227-5.1719 2.9414-0.51953 5.8008 0.60938 7.6172 2.7305 0.57031 0.66406-0.089843 1.707-0.9375 1.4922z"/>
</svg>
